HIERARCHY
ROOT hip
{
	OFFSET	0.00  0.00  0.00 
	CHANNELS 6 Xposition Yposition Zposition Xrotation Zrotation Yrotation
	JOINT abdomen
	{
		OFFSET	0.000000 3.402643 0.000000
		CHANNELS 3 Xrotation Zrotation Yrotation
		JOINT chest
		{
			OFFSET	0.000000 8.438564 -0.680529
			CHANNELS 3 Xrotation Zrotation Yrotation
			JOINT neck
			{
				OFFSET	0.000000 10.207942 -0.272212
				CHANNELS 3 Xrotation Zrotation Yrotation
				JOINT head
				{
					OFFSET	0.000000 3.130431 0.000000
					CHANNELS 3 Xrotation Zrotation Yrotation
					End Site
					{
						OFFSET 0.000000 3.130435 0.000000
					}
				}
			}
			JOINT lCollar
			{
				OFFSET	3.402647 6.669187 -0.816635
				CHANNELS 3 Yrotation Zrotation Xrotation
				JOINT lShldr
				{
					OFFSET	3.266541 0.000000 0.000000
					CHANNELS 3 Zrotation Yrotation Xrotation
					JOINT lForeArm
					{
						OFFSET	10.071835 0.000000 0.000000
						CHANNELS 3 Yrotation Zrotation Xrotation
						JOINT lHand
						{
							OFFSET	8.438563 0.000000 0.000000
							CHANNELS 3 Zrotation Yrotation Xrotation
							End Site
							{
								OFFSET 4.083176 0.000000 0.000000
							}
						}
					}
				}
			}
			JOINT rCollar
			{
				OFFSET	-3.538753 6.669187 -0.816635
				CHANNELS 3 Yrotation Zrotation Xrotation
				JOINT rShldr
				{
					OFFSET	-3.130435 0.000000 0.000000
					CHANNELS 3 Zrotation Yrotation Xrotation
					JOINT rForeArm
					{
						OFFSET	-10.207940 0.000000 0.000000
						CHANNELS 3 Yrotation Zrotation Xrotation
						JOINT rHand
						{
							OFFSET	-8.302459 0.000000 0.000000
							CHANNELS 3 Zrotation Yrotation Xrotation
							End Site
							{
								OFFSET -4.083176 0.000000 0.000000
							}
						}
					}
				}
			}
		}
	}
	JOINT lThigh
	{
		OFFSET	5.308129 -1.633274 1.361059
		CHANNELS 3 Xrotation Zrotation Yrotation
		JOINT lShin
		{
			OFFSET	-2.041588 -20.007561 0.000000
			CHANNELS 3 Xrotation Zrotation Yrotation
			JOINT lFoot
			{
				OFFSET	0.000000 -19.190928 -1.224953
				CHANNELS 3 Xrotation Yrotation Zrotation
				End Site
				{
					OFFSET 0.000000 -2.449905 4.627600
				}
			}
		}
	}
	JOINT rThigh
	{
		OFFSET	-5.308129 -1.633274 1.361059
		CHANNELS 3 Xrotation Zrotation Yrotation
		JOINT rShin
		{
			OFFSET	2.041588 -20.007561 0.000000
			CHANNELS 3 Xrotation Zrotation Yrotation
			JOINT rFoot
			{
				OFFSET	0.000000 -19.190928 -1.224953
				CHANNELS 3 Xrotation Yrotation Zrotation
				End Site
				{
					OFFSET 0.000000 -2.449905 4.627600
				}
			}
		}
	}
}
MOTION
Frames:     2
Frame Time: 0.033333
0.000000 43.689983 0.000000 0.000000 0.000000 0.000000 -0.341797 0.000000 0.000000 -0.429804 0.000000 -0.449113 0.000000 0.000000 0.000000 0.000000 0.000000 0.000000 0.281988 -8.000000 -0.002729 0.000000 -4.000000 0.000000 -8.000000 0.000000 0.000000 -7.000000 0.000000 0.000000 0.000000 8.000000 -0.194249 -0.260207 4.000000 -0.449221 8.000000 0.000000 0.000000 7.000000 0.000000 0.000000 -5.125730 4.989610 0.035764 10.197700 -2.001180 -0.079990 13.833700 2.345720 5.506860 -5.121340 -5.368720 -0.126592 10.343300 2.263710 0.099297 14.313600 -1.692470 -5.042500 
-12.249528 -3.788776 0.000000 89.000000 0.000000 0.000000 -8.341800 0.000000 0.000000 25.570200 0.000000 -0.449113 -9.000000 0.000000 40.000000 0.000000 0.000000 45.000000 0.281988 13.000000 -7.002730 0.000000 -4.000000 -66.000000 -104.000000 24.000000 0.000000 -7.000000 0.000000 12.000000 0.000000 -7.000000 -7.194250 -78.260201 4.000000 -70.449203 8.000000 -11.000000 0.000000 -2.000000 0.000000 0.000000 1.850200 3.174930 0.204086 -4.471900 1.903530 -0.296308 59.502899 1.363870 2.752270 1.850200 -11.174900 -0.204086 -4.471900 -1.903530 0.296308 59.502899 -1.363870 -2.752270 
